<?xml version="1.0" encoding="UTF-8" standalone="no"?> <!-- Created with Vectornator for iOS (http://vectornator.io/) --><!DOCTYPE svg PUBLIC "-//W3C//DTD SVG 1.1//EN" "http://www.w3.org/Graphics/SVG/1.1/DTD/svg11.dtd">
<svg xml:space="preserve" width="300px" height="150px" version="1.1" xmlns:vectornator="http://vectornator.io" xmlns="http://www.w3.org/2000/svg" style="fill-rule:nonzero;clip-rule:evenodd;stroke-linecap:round;stroke-linejoin:round;" viewBox="0 0 500 500" xmlns:xlink="http://www.w3.org/1999/xlink">
<metadata>
<vectornator:setting value="true" key="VNDimensionsVisible"/>
<vectornator:setting value="false" key="WDDisplayWhiteBackground"/>
<vectornator:setting key="VNSnapToGuides" value="false"/>
<vectornator:setting key="WDOutlineMode" value="false"/>
<vectornator:setting value="false" key="IsTimeLapseWatermarkDisabled"/>
<vectornator:setting value="false" key="WDDynamicGuides"/>
<vectornator:setting value="false" key="WDSnapToEdges"/>
<vectornator:setting key="WDSnapToPoints" value="false"/>
<vectornator:setting value="true" key="VNPencilOnly"/>
<vectornator:setting value="true" key="WDGuidesVisible"/>
<vectornator:setting key="WDIsolateActiveLayer" value="false"/>
<vectornator:setting key="WDSnapToGrid" value="false"/>
<vectornator:setting value="true" key="WDRulersVisible"/>
<vectornator:setting key="WDUnits" value="Pixels"/>
<vectornator:setting value="false" key="WDCMYKEnabledKey"/>
<vectornator:setting key="UndoHistoryDisabled" value="false"/>
</metadata>
<g opacity="0.384614" vectornator:layerName="레이어 1" id="레이어 1" visibility="hidden">
<use transform="matrix(0.244141 0 0 0.244141 0 0)" opacity="1" xlink:href="#Image"/>
</g>
<g id="레이어 2" vectornator:layerName="레이어 2">
<path opacity="1" fill="#ffffff" d="M164.969+110.281C162.471+110.086+159.975+111.386+158.75+113.75C142.557+145.007+128.544+177.249+114.406+209.469C113.537+211.45+112.652+213.426+111.781+215.406C94.4743+216.285+79.2825+227.735+69.25+241.25C67.0228+244.25+65.0038+247.404+63.2188+250.688C60.9498+254.861+59.0514+259.259+57.6875+263.812C56.1225+269.037+55.2223+274.571+55.6875+280.031C55.9094+282.635+56.4314+285.215+57.375+287.656C58.1398+289.635+59.1759+291.535+60.4688+293.219C64.9808+299.095+71.6869+301.411+78.6562+301.938C77.81+307.5+77.9519+314.068+82.8438+317.438C83.5442+317.92+84.2889+318.319+85.0938+318.594C86.3095+319.008+87.6252+319.177+88.9062+319.094C92.4906+318.86+95.7596+316.991+98.5938+314.906C103.386+311.381+107.491+306.931+111.281+302.375C114.237+298.821+116.99+295.078+119.625+291.25C125.832+288.282+131.9+284.98+137.844+281.531C140.914+279.749+141.97+275.821+140.188+272.75C138.474+269.797+134.762+268.776+131.75+270.281C131.916+269.932+132.118+269.6+132.281+269.25C135.806+261.677+138.802+253.638+139.875+245.312C140.426+241.035+140.42+236.613+139.375+232.406C137.465+224.721+132.176+219.604+125.062+217.125C126.014+214.956+126.987+212.795+127.938+210.625C141.355+179.988+154.796+149.367+170.188+119.656C171.821+116.504+170.59+112.633+167.438+111C166.649+110.592+165.801+110.346+164.969+110.281ZM119.906+228.875C120.439+229.019+120.99+229.113+121.5+229.312C122.831+229.834+124.196+230.637+125.094+231.781C128.417+236.02+127.489+242.698+126.406+247.562C124.775+254.895+121.748+261.851+118.312+268.5C116.093+272.796+113.579+276.945+110.938+281C109.534+281.636+108.173+282.375+106.75+282.969C103.287+284.414+99.7265+285.639+96.125+286.719C99.0622+277.803+102.328+269.007+105.969+260.344C109.4+252.179+113.103+244.146+116.719+236.062C117.789+233.67+118.845+231.271+119.906+228.875ZM105.531+229.5C104.746+231.258+103.979+233.026+103.188+234.781C98.0749+246.122+92.9312+257.502+88.5625+269.156C87.2908+272.549+86.0733+275.945+84.9062+279.375C83.9371+282.223+83.0093+285.093+82.125+287.969C81.9877+288.415+81.853+288.865+81.7188+289.312C76.6355+289.362+71.3353+288.144+69.375+283.031C68.8724+281.72+68.6187+280.333+68.5+278.938C68.3168+276.782+68.4622+274.599+68.8125+272.469C69.3924+268.943+70.5177+265.505+71.9062+262.219C75.7387+253.15+81.8012+244.87+89.2812+238.469C93.0684+235.228+97.3081+232.443+101.938+230.562C103.11+230.086+104.327+229.841+105.531+229.5ZM95.8125+300.156C95.2052+300.759+94.6613+301.422+94.0312+302C93.1885+302.773+92.2555+303.428+91.3438+304.125C91.4199+303.564+91.4525+302.995+91.5625+302.438C91.6627+301.929+91.8559+301.443+91.9688+300.938C93.252+300.686+94.5432+300.475+95.8125+300.156Z"/>
<path opacity="1" fill="#ffffff" d="M206.062+205.219C200.452+205.266+194.789+207.074+190.375+210.344C188.021+212.088+186.061+214.179+184.438+216.5C183.95+216.517+183.46+216.46+182.969+216.594C179.204+217.646+176.072+220.053+173.312+222.75C169.758+226.224+166.757+230.232+164.031+234.375C161.805+237.76+159.799+241.292+157.969+244.906C156.443+247.918+155.041+251.011+153.812+254.156C152.891+256.515+152.064+258.885+151.344+261.312C147.964+272.704+146.354+287.177+154.812+296.844C155.905+298.092+157.129+299.21+158.469+300.188C160.21+301.457+162.15+302.499+164.156+303.281C167.404+304.548+170.873+305.187+174.344+305.406C177.181+305.586+180.038+305.457+182.844+305C190.81+303.703+197.785+299.909+203.812+294.812C204.714+295.382+205.582+296.006+206.531+296.5C209.032+297.801+211.667+298.8+214.406+299.469C216.662+300.019+218.992+300.356+221.312+300.438C234.14+300.89+245.639+294.178+255.031+286.062C257.717+283.741+258.009+279.686+255.688+277C253.366+274.314+249.311+274.022+246.625+276.344C241.776+280.537+236.386+284.375+230.219+286.344C227.855+287.098+225.361+287.556+222.875+287.594C219.245+287.648+215.956+286.74+212.938+285.25C216.959+280.052+220.323+274.327+222.906+268.594C224.274+265.558+225.472+262.449+226.5+259.281C227.83+255.185+228.894+251.001+229.594+246.75C230.713+239.946+230.998+232.853+229.625+226.062C228.457+220.283+225.947+214.599+221.469+210.625C217.235+206.868+211.673+205.171+206.062+205.219ZM208.25+218.219C215.226+219.133+217.12+226.658+217.562+232.625C217.645+233.743+217.663+234.879+217.656+236C217.649+237.2+217.593+238.398+217.5+239.594C217.368+241.29+217.183+242.977+216.906+244.656C215.161+255.254+211.012+265.64+204.938+274.5C204.327+275.39+203.564+276.17+202.906+277.031C199.913+273.385+197.506+269.2+195.719+265.094C194.965+263.362+194.311+261.575+193.719+259.781C192.978+257.538+192.36+255.25+191.875+252.938C191.216+249.799+190.797+246.611+190.656+243.406C190.581+241.689+190.581+239.966+190.688+238.25C191.125+231.192+193.393+222.126+200.688+219.188C201.76+218.755+202.888+218.477+204.031+218.312C205.424+218.112+206.852+218.035+208.25+218.219ZM178+236.969C177.95+237.675+177.805+238.393+177.781+239.094C177.297+253.467+181.603+268.73+189.594+280.688C190.903+282.646+192.386+284.496+193.938+286.281C193.374+286.709+192.836+287.166+192.25+287.562C186.482+291.462+179.722+293.36+172.781+292.312C170.987+292.042+169.186+291.542+167.562+290.719C161.608+287.701+161.054+280.61+161.656+274.688C162.21+269.238+163.794+263.898+165.781+258.812C168.393+252.128+171.78+245.709+175.875+239.812C176.546+238.846+177.284+237.909+178+236.969Z"/>
<path opacity="1" fill="#ffffff" d="M298.219+189.094C297.62+189.019+297.022+189.014+296.438+189.125C295.228+189.356+294.151+190.056+293.156+190.781C292.567+191.211+292.203+191.884+291.812+192.5C290.537+194.514+290.808+197.843+290.906+200.125C291.08+204.15+291.436+208.187+291.375+212.219C291.33+215.23+290.87+218.256+290.219+221.188C289.588+224.027+288.657+226.821+287.25+229.375C283.879+235.491+277.928+239.363+271.656+242.062C268.346+243.488+264.372+245.044+260.75+243.812C257.012+242.542+254.972+238.42+253.812+234.938C252.125+229.872+251.677+224.338+252.062+219.031C252.264+216.264+252.659+213.432+253.781+210.875C255.196+207.619+253.694+203.821+250.438+202.406C247.181+200.992+243.415+202.494+242+205.75C240.497+209.233+239.715+212.953+239.344+216.719C239.108+219.112+239.026+221.502+239.094+223.906C239.422+235.59+243.259+250.173+254.969+255.344C256.306+255.934+257.723+256.367+259.156+256.656C260.948+257.018+262.768+257.147+264.594+257.062C267.573+256.925+270.512+256.227+273.312+255.219C280.877+252.496+288.26+248.365+293.688+242.344C294.432+241.517+295.026+240.577+295.688+239.688C295.579+241.311+295.542+242.944+295.406+244.562C293.921+262.303+290.874+279.919+286.844+297.25C285.858+301.489+284.618+305.664+283.5+309.875C282.205+310.772+280.88+311.623+279.594+312.531C267.052+321.389+254.992+330.899+243.844+341.469C241.697+343.504+239.672+345.691+237.75+347.938C236.257+349.683+234.835+351.466+233.469+353.312C232.238+354.977+231.039+356.684+229.938+358.438C224.5+367.09+219.761+378.914+226+388.438C227.206+390.279+228.73+391.81+230.438+393.188C232.46+394.818+234.734+396.192+237.188+397.062C238.676+397.59+240.209+397.917+241.781+398.062C253.514+399.147+262.724+389.172+268.75+380.406C269.828+378.839+270.859+377.221+271.844+375.594C273.311+373.171+274.696+370.702+276+368.188C277.601+365.1+279.086+361.959+280.5+358.781C286.377+345.571+290.818+331.752+294.688+317.812C307.983+308.771+321.616+300.199+335+291.312C349.709+281.546+364.062+271.333+377.562+259.938C380.276+257.648+380.634+253.588+378.344+250.875C376.054+248.162+371.994+247.804+369.281+250.094C361.067+257.027+352.532+263.551+343.75+269.75C329.319+279.937+314.365+289.35+299.594+299.031C303.444+282.382+306.374+265.505+307.969+248.5C308.951+238.023+309.442+227.452+308.812+216.938C308.4+210.056+307.562+203.029+305.25+196.5C304.546+194.511+303.713+191.947+301.938+190.625C301.335+190.176+300.724+189.668+300+189.469C299.426+189.311+298.817+189.169+298.219+189.094ZM277.781+329.781C276.077+334.937+274.274+340.076+272.281+345.125C269.566+352.005+266.541+358.769+262.969+365.25C260.26+370.166+257.244+375.008+253.438+379.156C250.9+381.922+246.586+386.015+242.406+385.188C241.448+384.998+240.541+384.581+239.719+384.062C238.835+383.505+237.998+382.825+237.281+382.062C234.47+379.073+236.499+373.696+237.938+370.562C238.214+369.96+238.506+369.401+238.812+368.812C244.087+358.698+252.407+350.708+260.906+343.312C266.364+338.564+272.008+334.103+277.781+329.781Z"/>
<path opacity="1" fill="#ffffff" d="M429.344+149.312C427.346+149.185+425.312+149.26+423.375+149.5C413.764+150.693+404.775+155.285+396.812+160.594C379.112+172.394+364.813+189.761+354.75+208.375C351.083+215.158+347.94+222.256+345.469+229.562C344.111+233.575+342.844+237.663+342.125+241.844C341.118+247.699+341.537+254.166+346.531+258.156C350.26+261.135+355.226+261.559+359.812+261.281C366.011+260.907+372.094+259.43+378.281+258.938C381.972+258.644+386.875+258.425+390+260.844C390.904+261.544+391.574+262.506+392.219+263.438C393.035+264.616+393.758+265.847+394.406+267.125C395.769+269.814+396.774+272.664+397.469+275.594C398.394+279.496+398.792+283.527+398.875+287.531C398.99+293.1+398.511+298.661+397.625+304.156C395.71+316.043+392.068+327.66+387.5+338.781C385.537+343.559+383.376+348.257+381+352.844C379.448+355.839+377.81+358.805+375.906+361.594C372.162+367.078+367.567+371.968+362.531+376.281C356.272+381.642+349.305+386.186+341.906+389.812C337.264+392.088+332.418+394.016+327.406+395.312C324.204+396.141+320.824+396.787+317.5+396.625C316.331+396.568+314.959+396.479+313.969+395.781C313.88+395.719+313.902+395.346+313.906+395.188C313.927+394.463+314.102+393.753+314.312+393.062C315.157+390.29+316.688+387.711+318.281+385.312C321.267+380.817+324.806+376.702+328.469+372.75C333.493+367.329+338.859+362.231+344.344+357.281C346.98+354.903+347.191+350.823+344.812+348.188C342.434+345.552+338.386+345.372+335.75+347.75C332.472+350.709+329.215+353.688+326.062+356.781C323.667+359.132+321.312+361.538+319.031+364C317.315+365.853+315.653+367.752+314.031+369.688C312.6+371.396+311.198+373.144+309.875+374.938C308.894+376.267+307.957+377.611+307.062+379C302.72+385.744+298.226+395.336+303.25+402.906C308.442+410.729+319.663+410.166+327.719+408.469C329.189+408.159+330.648+407.783+332.094+407.375C340.905+404.887+349.318+400.895+357.094+396.094C369.572+388.39+381.008+378.216+388.656+365.594C393.684+357.296+397.687+348.236+401.156+339.188C406.888+324.235+411.168+308.355+411.719+292.281C412.162+279.341+409.91+265.731+402.062+255.094C400.848+253.447+399.495+251.947+397.875+250.688C389.846+244.447+378.875+245.66+369.469+247.062C366.36+247.526+363.258+248.096+360.125+248.375C359.109+248.465+358.113+248.505+357.094+248.5C356.742+248.498+356.382+248.472+356.031+248.438C355.685+248.403+355.338+248.335+355+248.25C354.894+248.223+354.82+248.224+354.719+248.188C354.711+248.185+354.698+248.192+354.688+248.188C354.555+247.721+354.53+247.237+354.531+246.75C354.532+246.436+354.538+246.127+354.562+245.812C354.593+245.419+354.631+245.079+354.688+244.688C355.138+241.558+356.107+238.471+357.062+235.469C358.651+230.475+360.602+225.611+362.844+220.875C371.33+202.947+384.064+185.951+400.031+174.031C406.771+169+414.716+164.209+423.062+162.562C424.604+162.258+426.177+162.078+427.75+162.094C430.567+162.121+434.71+162.79+434.375+166.438C434.321+167.027+434.19+167.597+434+168.156C433.734+168.94+433.35+169.69+432.938+170.406C430.126+175.283+425.271+178.786+420.562+181.656C417.531+183.505+416.558+187.469+418.406+190.5C420.255+193.531+424.219+194.505+427.25+192.656C435.115+187.857+443.092+181.312+446.156+172.281C446.838+170.273+447.238+168.155+447.25+166.031C447.26+164.195+446.972+162.363+446.375+160.625C445.95+159.389+445.379+158.214+444.656+157.125C441.202+151.92+435.337+149.696+429.344+149.312Z"/>
<path opacity="1" fill="#ffffff" d="M438.625+175.406C432.167+175.508+425.716+177.709+420.062+181.062C417.01+182.875+416.031+186.791+417.844+189.844C419.657+192.896+423.572+193.907+426.625+192.094C431.413+189.246+437.132+187.337+442.719+188.688C443.887+188.97+445.021+189.427+446.062+190.031C446.802+190.46+447.5+190.946+448.094+191.562C448.496+191.98+448.849+192.459+449.125+192.969C451.31+197.007+446.292+200.744+443.312+202.438C441.398+203.526+439.361+204.377+437.281+205.094C433.063+206.549+428.686+207.406+424.281+208.062C420.77+208.586+418.32+211.864+418.844+215.375C419.367+218.886+422.645+221.305+426.156+220.781C435.97+219.316+446.433+216.833+454.312+210.438C456.927+208.316+459.206+205.728+460.688+202.688C461.513+200.993+462.086+199.181+462.344+197.312C463.549+188.582+457.81+181.087+450.094+177.688C446.359+176.042+442.5+175.345+438.625+175.406Z"/>
<path opacity="1" fill="#ffffff" d="M404.406+211.344C402.24+211.583+400.409+212.976+399.438+215C399.426+215.022+399.417+215.041+399.406+215.062C399.274+215.346+399.061+215.567+398.969+215.875C398.87+216.207+398.919+216.542+398.875+216.875C398.836+217.092+398.705+217.275+398.688+217.5C398.672+217.696+398.748+217.869+398.75+218.062C398.765+218.34+398.794+218.605+398.844+218.875C399.26+221.792+401.565+224.17+404.625+224.406C406.649+224.562+408.46+224.523+410.125+223.156C410.499+222.849+410.893+222.541+411.188+222.156C411.576+221.648+411.925+221.096+412.156+220.5C412.419+219.822+412.579+219.1+412.625+218.375C412.667+217.709+412.588+217.025+412.438+216.375C412.321+215.871+412.078+215.398+411.844+214.938C410.753+212.795+409.051+212.184+406.969+211.562C406.118+211.309+405.236+211.252+404.406+211.344Z"/>
</g>
</svg>
