<svg width="500" height="500">
    <path style="fill:#ffffff; stroke:none;" d="M462 894C428.766 886.084 391.068 895.414 361 909.703C290.776 943.076 235.946 1013.55 210.695 1086C193.3 1135.91 190.338 1209.47 252 1229.25C273.188 1236.05 298.272 1233.75 320 1231C319.122 1242.12 317.529 1252.76 318.039 1264C319.429 1294.61 353.609 1302.79 376.996 1290.69C406.23 1275.57 431.91 1244.78 451.308 1218.72C459.719 1207.42 467.591 1190.65 478.304 1181.64C483.542 1177.23 491.006 1174.93 497 1171.69C513.963 1162.52 536.222 1150.08 547.235 1133.71C560.975 1113.3 537.073 1092.53 517 1101C530.548 1059.36 541.664 1015.11 534.562 971C532.397 957.557 527.566 943.859 519.854 932.576C517.162 928.637 507.843 920.529 508.67 915.714C510.085 907.472 516.741 898.625 520.139 891C529.548 869.889 539.733 849.12 549.139 828C579.894 758.94 612.374 689.796 638.95 619C653.201 581.036 670.91 544.292 684.343 506C688.214 494.968 699.666 476.056 690.235 464.899C680.072 452.875 662.399 457.221 653.042 467.501C634.509 487.861 624.491 520.118 613.306 545C581.144 616.545 553.238 690.131 521.716 762C508.351 792.471 494.573 822.768 480.691 853C474.543 866.39 466.059 879.807 462 894M1410 1100L1242 1230C1242.84 1189.48 1250.18 1148.6 1251.96 1108C1255.13 1035.59 1250.86 963.291 1250 891C1249.77 872.245 1248.95 852.672 1247.17 834C1246.42 826.135 1247.76 818.636 1245.16 811C1240.71 797.912 1226.7 789.53 1213 793.915C1191.66 800.745 1188.76 831.719 1182.67 850C1169.78 888.66 1155.29 928.358 1132.51 962.424C1123.12 976.48 1108.75 993.716 1091 996.674C1076.82 999.037 1062.45 987.565 1054.91 976.536C1038.24 952.153 1035.85 917.519 1039.05 889C1040.27 878.154 1044.69 867.006 1042.74 856C1039.28 836.583 1010.51 834.38 1001.24 850.174C992.752 864.625 991.108 884.679 989.911 901C987.152 938.64 990.913 976.356 1013.57 1007.99C1041 1046.29 1090.86 1060.14 1131.91 1035.35C1147.86 1025.72 1160.18 1011.94 1171.33 997.286C1182.91 982.066 1195.67 962.501 1201 944L1202 944C1202 1022.61 1204 1100.67 1196.17 1179C1193.86 1202.05 1191.14 1225.25 1186.6 1248C1185 1255.99 1184.87 1266.78 1180.7 1273.91C1176.21 1281.57 1164.48 1286.61 1157.59 1292C1137.48 1307.73 1116.26 1322.04 1095.9 1337.44C1032.98 1385.02 969.565 1433.09 917.036 1492.49C888.294 1524.99 849.482 1581.36 879.961 1624.67C896.796 1648.6 923.129 1652 950 1652C1015.49 1652 1072.6 1600 1112.67 1553.5C1153.66 1505.93 1181.47 1446.53 1202.95 1388C1209.68 1369.66 1215.27 1350.8 1220.57 1332C1222.86 1323.88 1223.41 1312.08 1228.42 1305.19C1232.86 1299.07 1241.54 1295 1247.57 1290.58C1260.61 1281.01 1273.5 1271.3 1286.54 1261.73C1329.27 1230.38 1371.29 1198.06 1412.83 1165.14C1432.43 1149.61 1451.33 1132.67 1469 1115C1475.79 1108.21 1482.72 1095.65 1490.34 1090.57C1496.03 1086.77 1506.33 1086.05 1513 1084.92C1532.11 1081.67 1551.82 1077.61 1571 1082.38C1594.27 1088.16 1607.83 1105.21 1617.74 1126C1635.15 1162.51 1637.39 1204.48 1632.95 1244C1621.95 1341.87 1570.92 1438.71 1507.33 1512.5C1479.44 1544.87 1446.56 1577.85 1407 1595.69C1401.28 1598.27 1395.02 1600.22 1389 1601.96C1372.3 1606.79 1359.12 1596.63 1359.18 1579C1359.23 1564.38 1368.68 1548.05 1376.54 1536.29C1394.2 1509.87 1418.96 1486.48 1446.17 1470C1467.64 1456.99 1493.53 1447.76 1511.47 1429.74C1529.29 1411.84 1507.88 1385.76 1486 1391.79C1468.35 1396.65 1450.83 1407.38 1435 1416.35C1383.95 1445.27 1338.44 1487.23 1315.28 1542C1299.09 1580.31 1310.15 1632.63 1351 1649.77C1363.04 1654.82 1377.15 1654.8 1390 1653.91C1410.76 1652.48 1431.43 1642.49 1449 1632C1483.99 1611.12 1514.91 1582.9 1541.52 1552.17C1626.95 1453.51 1686.57 1328.97 1685 1197C1684.31 1138.23 1661.83 1063.59 1603 1038.43C1582.35 1029.6 1561.04 1029.74 1539 1030C1508.11 1030.37 1476.49 1039.69 1447 1048C1465.71 1003.06 1497.46 961.564 1526.31 922.718C1569.81 864.138 1616.04 807.592 1672 760.275C1695.17 740.686 1721.32 720.025 1750 709.319C1760.28 705.48 1771.31 699.349 1782 704C1779.5 711.205 1774.39 718.346 1767.71 722.326C1750.99 732.307 1719.84 736.557 1730.1 765C1731.39 768.572 1733.16 772.114 1735.7 774.96C1752.75 794.118 1771.55 777.216 1790 772.16C1809.38 766.849 1835.84 779.744 1842.24 799C1847.42 814.622 1828.15 827.265 1817 834.319C1796.74 847.137 1774.51 855.85 1751 860.551C1735.95 863.561 1719.46 862.803 1705 868.229C1687.93 874.634 1683.03 901.276 1701.09 910.25C1715.6 917.457 1737.6 914.271 1753 912.13C1800.46 905.533 1865.39 881.238 1887.89 835C1908.28 793.117 1877.15 732.068 1830 725C1831.86 716.869 1832.04 709.337 1832 701C1831.89 678.5 1812 661.249 1791 656.668C1758.06 649.481 1722.77 661.9 1695.17 679.214C1584.54 748.622 1499.08 861.831 1430.32 971C1414.85 995.566 1390.36 1029.04 1389.04 1059C1388.28 1076.23 1392.03 1093.32 1410 1100M841 1155C883.022 1104.27 905 1034.17 905 969C905 930.139 893.788 890.821 860.816 867.053C830.263 845.03 786.851 845.578 755 864.452C743.271 871.402 735.389 882.249 724.482 889.816C712.421 898.182 697.43 902.249 685.155 911.054C659.589 929.394 639.66 955.93 624.228 983C596.73 1031.24 578.71 1094.38 588.081 1150C595.811 1195.89 630.824 1237.17 679 1241.83C708.707 1244.71 738.119 1238.35 764 1223.57C773.483 1218.16 783.167 1212.21 791.675 1205.34C794.923 1202.72 799.777 1196.26 804.184 1196.06C808.043 1195.89 812.509 1199.15 816 1200.55C825.067 1204.19 834.518 1207.72 844 1210.1C877.62 1218.56 914.321 1219.23 947 1206.81C958.009 1202.62 971.253 1196.62 978.885 1187.25C988.047 1176.01 982.714 1153.29 967 1151.19C946.302 1148.42 926.317 1161.97 906 1164.71C882.781 1167.84 863.152 1160.12 841 1155M1639.42 869.728C1610.45 879.331 1621.89 925.077 1652 915.081C1680.59 905.59 1669 859.929 1639.42 869.728z"/>
    <path style="fill:#000000; stroke:none;" d="M801 901.464C775.189 905.993 759.511 924.199 748.703 947C730.147 986.146 728.07 1028.3 742.345 1069C749.085 1088.22 762.545 1103.6 777.486 1116.96C781.136 1120.22 789.569 1129.8 794.907 1128.56C798.934 1127.62 802.307 1121.25 804.54 1118.12C812.248 1107.28 819.285 1095.9 825.247 1084C845.788 1043.02 861.556 991.993 852.193 946C847.31 922.014 828.636 896.614 801 901.464M438 942C360.805 943.592 299.158 1015.71 268.703 1080C257.356 1103.95 245.077 1135.24 251.896 1162C258.807 1189.12 292.981 1183.53 314 1180.42C320.189 1179.51 333.893 1179.54 337.583 1173.85C345.003 1162.41 348.167 1145.73 353.204 1133C365.063 1103.04 377.54 1073.18 391.22 1044C401.51 1022.05 411.426 999.922 421.781 978C427.234 966.455 435.042 954.454 438 942M481 972C462.86 1015.63 440.457 1057.58 421.719 1101C413.976 1118.95 401.864 1139.61 399 1159C411.215 1154.29 432.163 1149.97 441.471 1140.61C449.611 1132.41 454.616 1117.48 459.15 1107C471.823 1077.69 481.354 1046.77 485.155 1015C486.633 1002.65 488.638 982.718 481 972M683 986C656.706 1027.46 630.077 1083.23 637.428 1134C641.927 1165.07 662.003 1194.3 697 1191.91C720.79 1190.29 736.163 1176.73 757 1168C752.375 1158.53 738.679 1150.72 731.17 1143.05C716.194 1127.76 703.663 1109.9 695.604 1090C687.569 1070.16 682.54 1048.43 682.015 1027C681.73 1015.37 686.779 996.537 683 986M375 1226L384 1219C378.468 1217.32 376.386 1221.32 375 1226M1160 1355C1152.48 1357.98 1146.09 1364.43 1139.54 1369.14C1124.71 1379.81 1110.06 1390.76 1095.61 1401.95C1048.48 1438.46 999.399 1475.64 960.232 1520.95C946.706 1536.59 932.888 1552.68 924.862 1572C922.367 1578.01 918.255 1588.8 922.603 1594.81C928.273 1602.66 942.477 1602.74 951 1601.41C975.018 1597.67 994.662 1587.76 1015 1574.79C1088.97 1527.64 1133.71 1435.79 1160 1355z"/>
</svg>